<?xml version="1.0" encoding="UTF-8" standalone="no"?>
<!-- Created with Inkscape (http://www.inkscape.org/) -->

<svg
   width="86.452644mm"
   height="86.20269mm"
   viewBox="0 0 86.452644 86.20269"
   version="1.1"
   id="svg1"
   xml:space="preserve"
   inkscape:version="1.3 (0e150ed6c4, 2023-07-21)"
   sodipodi:docname="404.svg"
   xmlns:inkscape="http://www.inkscape.org/namespaces/inkscape"
   xmlns:sodipodi="http://sodipodi.sourceforge.net/DTD/sodipodi-0.dtd"
   xmlns="http://www.w3.org/2000/svg"
   xmlns:svg="http://www.w3.org/2000/svg"><sodipodi:namedview
     id="namedview1"
     pagecolor="#ffffff"
     bordercolor="#666666"
     borderopacity="1.0"
     inkscape:showpageshadow="2"
     inkscape:pageopacity="0.0"
     inkscape:pagecheckerboard="0"
     inkscape:deskcolor="#d1d1d1"
     inkscape:document-units="mm"
     inkscape:zoom="1.4878904"
     inkscape:cx="-2.3523239"
     inkscape:cy="224.14286"
     inkscape:window-width="2560"
     inkscape:window-height="1377"
     inkscape:window-x="1912"
     inkscape:window-y="-8"
     inkscape:window-maximized="1"
     inkscape:current-layer="layer1" /><defs
     id="defs1" /><g
     inkscape:label="Слой 1"
     inkscape:groupmode="layer"
     id="layer1"
     transform="translate(-64.074845,-43.698638)"><path
       style="fill:#000000"
       d="m 101.90508,129.8329 c -0.50932,-0.0655 -2.295256,-0.42125 -3.968746,-0.79047 -12.72326,-2.80714 -23.41455,-11.21193 -29.35615,-23.07788 -1.10551,-2.20781 -3.1763,-7.952147 -3.1837,-8.831537 -0.004,-0.43022 0.52966,-0.46302 7.52778,-0.46302 h 7.53167 l 0.0751,2.84427 0.0751,2.844267 2.71198,0.0754 2.71198,0.0754 v -2.919667 -2.91967 h 1.84008 1.84008 l -0.0341,-2.57969 -0.0341,-2.57969 -1.73982,-0.13229 -1.73983,-0.13229 -0.0695,-9.3331 -0.0695,-9.3331 -4.28436,0.0727 -4.28436,0.0727 -6.49402,8.90942 -6.49402,8.90943 -0.22222,-0.97193 c -0.52147,-2.28077 0.21849,-9.61236 1.41704,-14.04005 4.37271,-16.15377 17.81268,-28.38763 34.362366,-31.27865 4.26561,-0.74515 10.37882,-0.73912 14.69531,0.0145 8.81766,1.53945 16.66633,5.64119 23.0373,12.03936 3.84106,3.85746 5.98815,6.83288 8.21972,11.39085 2.72034,5.55629 3.83351,9.53487 4.3869,15.67926 1.24063,13.77492 -4.60311,27.726927 -15.36812,36.691567 -5.46113,4.54779 -11.85137,7.63944 -18.97677,9.18109 -2.07291,0.44849 -3.68222,0.57745 -7.89528,0.63267 -2.91042,0.0381 -5.70839,0.0157 -6.21771,-0.0498 z m 5.15938,-27.21268 c 4.93654,-1.04104 8.53659,-4.405257 9.80211,-9.160007 0.53168,-1.99759 0.52486,-9.89793 -0.0103,-11.95262 -1.16848,-4.48608 -4.53764,-7.89766 -8.96322,-9.07605 -1.58999,-0.42336 -5.35555,-0.47016 -7.01671,-0.0872 -1.943266,0.448 -3.940966,1.54631 -5.590796,3.07376 -2.79712,2.58964 -3.80208,5.05326 -4.10965,10.07459 -0.20844,3.40313 0.19779,7.41403 0.95622,9.44112 1.24301,3.32223 4.21566,6.117127 7.71818,7.256667 2.748506,0.89421 4.513206,0.99934 7.214186,0.42974 z m -5.42396,-5.409017 c -1.06593,-0.36613 -1.785066,-0.85731 -2.688286,-1.83613 -1.87744,-2.0346 -2.13653,-3.11051 -2.03032,-8.4315 0.0868,-4.34691 0.10308,-4.45552 0.88215,-5.87459 1.45363,-2.64776 3.770656,-3.85862 7.005656,-3.66112 3.03385,0.18523 5.30068,1.81842 6.32543,4.5573 0.47739,1.27595 0.55954,2.07226 0.55954,5.42395 0,4.981 -0.33807,6.19413 -2.26689,8.13453 -2.12248,2.13523 -4.79677,2.71476 -7.78728,1.68756 z m 39.36572,2.30306 0.0751,-2.84427 h 1.71084 1.71084 v -2.64584 -2.64583 h -1.71979 -1.71979 v -9.39271 -9.39271 h -4.33831 -4.3383 l -6.64191,9.10635 c -7.30793,10.01951 -6.80348,9.01059 -6.47111,12.94262 l 0.1708,2.02047 7.96514,0.07 7.96515,0.07 0.0752,2.85343 0.0752,2.853417 2.70293,-0.0753 2.70294,-0.0753 z M 125.453,91.218393 c 0,-0.088 2.23242,-3.21335 4.96094,-6.94531 l 4.96094,-6.78538 0.0709,6.60981 c 0.039,3.63539 0.013,6.76078 -0.0578,6.94531 -0.0976,0.25424 -1.31625,0.3355 -5.03184,0.3355 -2.69671,0 -4.9031,-0.072 -4.9031,-0.15993 z m -54.691636,-0.18854 c 0.0735,-0.19167 2.28894,-3.29907 4.9231,-6.90535 l 4.78937,-6.55688 v 6.90535 6.90535 h -4.9231 c -3.96348,0 -4.89703,-0.0679 -4.78937,-0.34847 z"
       id="path1" /></g></svg>
